<svg id="Livello_1" data-name="Livello 1" xmlns="http://www.w3.org/2000/svg" viewBox="0 0 636.11 210"><defs><style>.cls-1,.cls-2{fill:#344da1;}.cls-2{font-size:50px;font-family:Sella-Regular, Sella;}.cls-3{letter-spacing:-0.01em;}.cls-4{letter-spacing:0em;}.cls-5{letter-spacing:0em;}.cls-6{letter-spacing:-0.01em;}.cls-7{letter-spacing:-0.02em;}</style></defs><title>Banca Sella</title><path class="cls-1" d="M300.32,69V16.49h22.95c8.1,0,15,4.2,15,13.12a12.17,12.17,0,0,1-8.62,11.85c5.47,1.2,10.57,5.32,10.57,13,0,7.87-5.4,14.55-16.95,14.55H311.72V64h10.8c7,0,11.47-3.22,11.47-9.75,0-6.37-5.1-9.67-11.55-9.67H311.72v-4.8h10.35c5.17,0,10.27-3.07,10.27-9.37,0-5.62-4.27-8.85-9.75-8.85H306.47V69Z"/><path class="cls-1" d="M380.27,65.31a5.55,5.55,0,0,0,2.7-.67v4.27a10.41,10.41,0,0,1-4.27.9c-4.42,0-6.82-2.7-6.82-6.75v-1.2c-1.65,4.12-5.92,7.8-13.57,7.8-8.25,0-13.12-5.17-13.12-11.47s4.42-9.6,9.9-11c4.27-1.12,8.7-1.65,11.77-2.7v4.27c-2.85.9-6.52,1.5-9.67,2.32-3.52,1-5.85,3.23-5.85,6.82,0,4,3.07,7.35,8.85,7.35,6.22,0,11.25-3.9,11.25-11.62V41.09c0-4.8-2.85-7.87-9.22-7.87-6.6,0-10.42,4-11.47,7.42l-4.65-2.55c1.73-4.57,6.9-9.6,16.57-9.6,8.77,0,14.7,4,14.7,12.07V61.79C377.35,64.49,378.47,65.31,380.27,65.31Z"/><path class="cls-1" d="M393.17,69h-5.92V29h5.92v6.82c2.55-4.73,7.35-7.35,13.2-7.35,9.37,0,14.17,5.48,14.17,13.95V69h-5.92V43.57c0-7.35-4.42-10.12-9.6-10.12-6.15,0-11.85,3.9-11.85,12.07Z"/><path class="cls-1" d="M462.62,55.71c-1,8.92-7.57,13.87-16.8,13.87-10.8,0-18.37-6.75-18.37-20.32s7.8-20.77,18.67-20.77c9.6,0,15.45,5.77,16.42,13.57h-6c-.9-6-5.4-8.62-10.57-8.62-6.9,0-12.45,4.57-12.45,15.67S439.15,64.64,446,64.64c6.22,0,10-3.68,10.8-8.92Z"/><path class="cls-1" d="M501.69,65.31a5.55,5.55,0,0,0,2.7-.67v4.27a10.41,10.41,0,0,1-4.27.9c-4.42,0-6.82-2.7-6.82-6.75v-1.2c-1.65,4.12-5.92,7.8-13.57,7.8-8.25,0-13.12-5.17-13.12-11.47s4.42-9.6,9.9-11c4.27-1.12,8.7-1.65,11.77-2.7v4.27c-2.85.9-6.52,1.5-9.67,2.32-3.52,1-5.85,3.23-5.85,6.82,0,4,3.07,7.35,8.85,7.35,6.22,0,11.25-3.9,11.25-11.62V41.09c0-4.8-2.85-7.87-9.22-7.87-6.6,0-10.42,4-11.47,7.42l-4.65-2.55c1.73-4.57,6.9-9.6,16.57-9.6,8.77,0,14.7,4,14.7,12.07V61.79C498.77,64.49,499.89,65.31,501.69,65.31Z"/><path class="cls-1" d="M298.15,165.89h24.6v3c0,10,7.95,14.25,18.45,14.25,12.15,0,16.35-5,16.35-11.25,0-6.6-6.45-9.15-16.95-12.3l-11.4-3.45c-16.2-4.95-28.65-11.4-29.1-29.55,0-17.1,12-32.85,41.55-32.85,26.1,0,39.3,11.55,39.3,30.45v3.15h-22.5v-2.4c0-8.55-5.7-13-17.25-13-10,0-16.2,4.65-16.2,11.1,0,4.65,1.8,8.7,12.6,12l16.5,5C371,145,383,152.09,383,170.24c0,17.25-13.8,31.5-41.7,31.5-32.85,0-43.2-16.95-43.2-32.85Zm123.59-15.15h24.45c-.6-9.15-6.75-15.3-15.15-15.3-8.55,0-17.7,6.15-17.7,23.1v2.25c.3,12.15,5.7,21.3,18.15,21.3,8.7,0,13.65-4.8,15.3-9.6L467,178.94c-3.45,10.2-13.8,22.35-36.75,22.35-24.9,0-40.35-18.45-40.35-40.8,0-25.65,15.45-43.95,40.65-43.95,26.85,0,38.7,19.35,38.7,42.6v6.3H421.74Zm57.9,49.5v-111h22.65v111Zm34.95,0v-111h22.65v111Zm81.6-9c-2.7,3.45-9.75,10-23.1,10-15.6,0-26.4-9.6-26.4-23.4,0-15,10.95-21.15,23.1-24.9l18-5.55v15.75l-11.55,4.5c-4.2,1.8-6.15,4.65-6.15,8.1,0,3.75,3.3,8.85,11.1,8.85,9.45,0,15-6.45,15-14.7v-24.3c0-6.75-4.2-10.95-12.6-10.95-11.1,0-13.65,6.9-13.65,11.7H548.49c0-18.3,13.2-29.85,35.85-29.85,21.75,0,34.65,8.85,34.65,27.3v56.4h-22.8Z"/><text class="cls-2" transform="translate(0.37 53.49)">p<tspan class="cls-3" x="30.25" y="0">a</tspan><tspan x="56.9" y="0">yme</tspan><tspan class="cls-4" x="155.7" y="0">n</tspan><tspan class="cls-5" x="184.8" y="0">t </tspan><tspan class="cls-6" x="214" y="0">b</tspan><tspan class="cls-7" x="243.65" y="0">y</tspan></text></svg>