<svg xmlns="http://www.w3.org/2000/svg" viewBox="0 0 383.59 99.21"><defs><style>.cls-1{fill:#007cba;}.cls-2{fill:#004a97;}.cls-3{opacity:0.05;}.cls-4{fill:#1d1d1b;}</style></defs><title>Tavola disegno 1 copia</title><g id="Livello_1" data-name="Livello 1"><g id="_Group_" data-name="&lt;Group&gt;"><rect class="cls-1" x="162.4" y="58.31" width="180.56" height="1.91"/></g><g id="_Group_2" data-name="&lt;Group&gt;"><g id="_Group_3" data-name="&lt;Group&gt;"><path class="cls-2" d="M57.31,23.67c1.06,0,1.27.14,1.27,3.85V31c0,3.57-.28,4-1.27,4h-12V75.11c0,.91-1.13,1.12-5.15,1.12H38.05c-4.09,0-4.8-.21-4.8-1.12V35h-12c-1,0-1.27-.28-1.27-4V27.52c0-3.85.21-3.85,1.27-3.85Zm21.51,1.12c0-.77-1.13-1.12-5-1.12H71.55c-4.09,0-4.8.35-4.8,1.12V75.11c0,.91.71,1.12,4.8,1.12h2.26c3.88,0,5-.21,5-1.12Zm58.54-1.12h-3.53c-4.51,0-4.8.49-5.15,1.26l-7,16.68c-2.33,5.54-4.73,11.49-5.64,14.58-.85-3.08-2.4-7.22-5.64-14.86l-7-16.4c-.42-1-2.19-1.26-6-1.26H93.49c-3.88,0-4.65.35-4.65,1.12V75.11c0,.91.78,1.12,4.8,1.12h2.19c3.95,0,5.08-.21,5.08-1.12V45.26h.28a18.67,18.67,0,0,0,.92,2.66l8,18.71c.35.84.78,1.19,4.51,1.19H117c3.81,0,4.09-.28,4.44-1.19l7.33-18c.71-1.68,1.2-3.36,1.2-3.36h.28V75.11c0,.91.78,1.12,4.94,1.12h2.12c3.88,0,5-.21,5-1.12V24.79C142.36,24,141.23,23.67,137.35,23.67Z"/></g></g><path class="cls-1" d="M162.68,49.9V23.35h6.09c6.57,0,11,2,11,8,0,5.56-3.85,8.51-9.86,8.51a41.64,41.64,0,0,1-4.63-.34V49.9c0,.3-.26.34-1.2.34h-.34C162.87,50.23,162.68,50.16,162.68,49.9Zm14.41-18.41c0-4.78-3.4-6-8.44-6h-3.36v12a31.94,31.94,0,0,0,4.14.3C174.48,37.73,177.09,35.67,177.09,31.49Z"/><path class="cls-1" d="M183.78,23.35h15.68c.26,0,.34.19.34,1v.15c0,.82-.07,1-.34,1H186.39V35.56h11.09c.26,0,.34.19.34,1v.15c0,.82-.08,1-.34,1H186.39V48.11h13.22c.26,0,.34.19.34,1v.15c0,.82-.07,1-.34,1H183.78Z"/><path class="cls-1" d="M221.64,50.23h-.34c-1.08,0-1.34,0-1.57-.41l-4.52-7.62c-1.72-2.95-2.31-3.36-5.56-3.36h-2.13V49.9c0,.3-.26.34-1.2.34H206c-.9,0-1.08-.07-1.08-.34V23.35h6.57c6.68,0,10.72,1.9,10.72,7.36,0,4.33-2.65,6.8-6.8,7.88a10.62,10.62,0,0,1,2.43,3.14l4.85,8C222.91,50.09,222.54,50.23,221.64,50.23ZM212,36.83c4.74,0,7.47-1.79,7.47-6s-2.61-5.45-7.77-5.45h-4.14V36.83Z"/><path class="cls-1" d="M225.72,48.48c-.26-.19-.22-.41.15-1.08l.11-.19c.37-.6.52-.75.78-.6a13.34,13.34,0,0,0,6.65,1.87c4.07,0,6.91-2.13,6.91-5s-3-4.41-6.8-6.2c-4.33-2-6.83-3.77-6.83-7.39,0-4.29,3.88-6.87,8.29-6.87a13.22,13.22,0,0,1,6.72,1.83c.3.19.22.37-.11,1l-.11.19c-.37.67-.52.75-.78.6a12.37,12.37,0,0,0-5.56-1.46c-3.36,0-5.86,1.75-5.86,4.48,0,2.95,3,4.41,6,5.82,4.14,1.94,7.65,3.73,7.65,7.88,0,4.33-3.73,7.32-9.26,7.32A14.94,14.94,0,0,1,225.72,48.48Z"/><path class="cls-1" d="M246.29,37.17c0-8.7,4.85-14.19,12.58-14.19,7.39,0,11.8,5,11.8,13.4,0,8.7-4.85,14.23-12.58,14.23C250.74,50.61,246.29,45.6,246.29,37.17Zm21.62-.63c0-7.24-3.32-11.35-9.18-11.35-6,0-9.71,4.41-9.71,11.84s3.36,11.39,9.18,11.39C264.25,48.41,267.91,43.92,267.91,36.53Z"/><path class="cls-1" d="M275.27,49.9V23.69c0-.3.15-.34,1.08-.34h.3c1.34,0,1.53,0,1.75.37l10.19,15.2c1.83,2.76,3.85,5.71,5.38,8V23.69c0-.3.11-.34,1-.34h.3c.9,0,1,0,1,.34V49.9c0,.3-.15.34-1.08.34h-.3c-1.31,0-1.49,0-1.72-.37L283,34.66c-1.83-2.69-3.62-5.41-5.45-8.1V49.9c0,.3-.11.34-1,.34h-.26C275.38,50.23,275.27,50.2,275.27,49.9Z"/><path class="cls-1" d="M300,49.82l10-26c.15-.41.37-.49,1.61-.49h.08c1.31,0,1.53,0,1.72.49l10.08,26c.11.3-.15.41-1.16.41h-.34c-1.08,0-1.27,0-1.42-.37L318,43H305.22l-2.54,6.87c-.11.3-.37.37-1.34.37h-.26C300,50.23,299.88,50.12,300,49.82Zm17.32-8.92L316,37.32c-1.46-3.81-3-8.18-4.29-11.91-1.31,3.62-2.91,8-4.37,11.8l-1.38,3.7Z"/><path class="cls-1" d="M327.26,49.82V23.69c0-.26.19-.34,1.08-.34h.34c.93,0,1.2,0,1.2.34V48.11h12.25c.26,0,.34.19.34,1v.15c0,.82-.08,1-.34,1H328.3C327.4,50.23,327.26,50.16,327.26,49.82Z"/></g><g id="Livello_1_copia" data-name="Livello 1 copia"><g id="_Group_4" data-name="&lt;Group&gt;" class="cls-3"><g id="_Group_5" data-name="&lt;Group&gt;"><path class="cls-4" d="M57.31,23.67c1.06,0,1.27.14,1.27,3.85V31c0,3.57-.28,4-1.27,4h-12V75.11c0,.91-1.13,1.12-5.15,1.12H38.05c-4.09,0-4.8-.21-4.8-1.12V35h-12c-1,0-1.27-.28-1.27-4V27.52c0-3.85.21-3.85,1.27-3.85Zm21.51,1.12c0-.77-1.13-1.12-5-1.12H71.55c-4.09,0-4.8.35-4.8,1.12V75.11c0,.91.71,1.12,4.8,1.12h2.26c3.88,0,5-.21,5-1.12Zm58.54-1.12h-3.53c-4.51,0-4.8.49-5.15,1.26l-7,16.68c-2.33,5.54-4.73,11.49-5.64,14.58-.85-3.08-2.4-7.22-5.64-14.86l-7-16.4c-.42-1-2.19-1.26-6-1.26H93.49c-3.88,0-4.65.35-4.65,1.12V75.11c0,.91.78,1.12,4.8,1.12h2.19c3.95,0,5.08-.21,5.08-1.12V45.26h.28a18.67,18.67,0,0,0,.92,2.66l8,18.71c.35.84.78,1.19,4.51,1.19H117c3.81,0,4.09-.28,4.44-1.19l7.33-18c.71-1.68,1.2-3.36,1.2-3.36h.28V75.11c0,.91.78,1.12,4.94,1.12h2.12c3.88,0,5-.21,5-1.12V24.79C142.36,24,141.23,23.67,137.35,23.67Z"/></g></g></g></svg>